<?xml version="1.0" encoding="UTF-8"?>
<svg version="1.1" xmlns="http://www.w3.org/2000/svg" width="885" height="543">
<path d="M0 0 C5.4459689 0.17807365 9.72072056 3.29910257 14.265625 6.03515625 C16.29718267 7.22435668 18.32978168 8.41177948 20.36328125 9.59765625 C21.43465332 10.22671875 22.50602539 10.85578125 23.60986328 11.50390625 C27.17594834 13.56533348 30.77192792 15.56097798 34.38671875 17.53515625 C34.99808685 17.86990463 35.60945496 18.20465302 36.23934937 18.54954529 C38.65304297 19.87050052 41.06702519 21.19077814 43.48669434 22.50076294 C45.17033686 23.41348776 46.84894165 24.33548656 48.52734375 25.2578125 C49.49115967 25.7825415 50.45497559 26.30727051 51.44799805 26.84790039 C55.22027573 29.23494118 57.58986473 31.19537543 59.015625 35.47265625 C59.1074848 36.89019858 59.14470935 38.31166219 59.14705276 39.73217583 C59.15089391 40.60591437 59.15473505 41.47965292 59.1586926 42.37986839 C59.15782612 43.34045634 59.15695963 44.30104429 59.15606689 45.29074097 C59.15903802 46.3106645 59.16200914 47.33058804 59.1650703 48.38141835 C59.17377499 51.81532226 59.17526703 55.24919138 59.17675781 58.68310547 C59.18138468 61.13845901 59.18640916 63.59381184 59.19180298 66.04916382 C59.20494042 72.73092831 59.21141092 79.41267913 59.21581364 86.09445333 C59.2185757 90.26566921 59.22281296 94.43688277 59.22731781 98.60809708 C59.23950995 110.15467877 59.24980975 121.70125861 59.2531929 133.2478466 C59.25352225 134.35640606 59.25352225 134.35640606 59.25385825 135.48736066 C59.25407653 136.22817606 59.25429481 136.96899146 59.2545197 137.73225582 C59.25496317 139.23345049 59.25540973 140.73464517 59.25585938 142.23583984 C59.25619152 143.3528083 59.25619152 143.3528083 59.25653037 144.49234177 C59.2604795 156.561806 59.27793725 168.63120989 59.3012189 180.7006508 C59.32492326 193.08909827 59.33739431 205.47751546 59.33856082 217.86598599 C59.33947804 224.8229311 59.34524213 231.77979757 59.36338043 238.73672104 C59.3803759 245.27839248 59.38204092 251.81994083 59.37324142 258.36163712 C59.3724684 260.76547902 59.37684841 263.16932879 59.38669968 265.57315063 C59.39934024 268.8491486 59.39358517 272.1246106 59.38311768 275.40060425 C59.39520228 276.83479401 59.39520228 276.83479401 59.40753102 278.2979573 C59.37102529 283.16709547 59.23723991 286.54773626 56.015625 290.47265625 C53.66918945 292.19506836 53.66918945 292.19506836 50.87890625 293.75 C49.83927734 294.33845703 48.79964844 294.92691406 47.72851562 295.53320312 C46.60638672 296.15259766 45.48425781 296.77199219 44.328125 297.41015625 C43.15091344 298.07218393 41.97449192 298.73561823 40.79882812 299.40039062 C38.38221587 300.76605555 35.96280583 302.12655601 33.54150391 303.48388672 C28.32813432 306.41473309 23.17346355 309.44550191 18.015625 312.47265625 C8.39609775 318.0973419 -1.24920571 323.67639191 -10.90625 329.23632812 C-11.916875 329.81833984 -12.9275 330.40035156 -13.96875 331 C-14.96197266 331.5657373 -15.95519531 332.13147461 -16.97851562 332.71435547 C-19.04465556 333.92296007 -21.08432126 335.17762181 -23.09960938 336.46923828 C-32.88721553 342.63369674 -32.88721553 342.63369674 -38.65625 342.11230469 C-43.87055526 340.67968306 -48.37599788 337.85547807 -52.984375 335.09765625 C-54.09304932 334.45497803 -55.20172363 333.8122998 -56.34399414 333.15014648 C-59.5685447 331.27581064 -62.77773799 329.37742891 -65.984375 327.47265625 C-67.48225065 326.59494939 -68.98083485 325.71844935 -70.48046875 324.84375 C-73.1362173 323.29118845 -75.78472262 321.72710302 -78.4296875 320.15625 C-83.06778126 317.41076027 -87.74085756 314.72715623 -92.4140625 312.04199219 C-97.94405629 308.8635229 -103.4660803 305.67138803 -108.984375 302.47265625 C-110.50466309 301.5916626 -110.50466309 301.5916626 -112.05566406 300.69287109 C-114.85037094 299.06688516 -117.63740375 297.42859429 -120.421875 295.78515625 C-121.66384644 295.06416748 -121.66384644 295.06416748 -122.9309082 294.32861328 C-123.68976318 293.87728027 -124.44861816 293.42594727 -125.23046875 292.9609375 C-125.88716553 292.57462158 -126.5438623 292.18830566 -127.22045898 291.7902832 C-129.93244494 289.76445785 -131.7637337 287.7306047 -132.35910511 284.3361969 C-132.3588535 283.17699989 -132.3588535 283.17699989 -132.3585968 281.99438477 C-132.36561111 281.10276642 -132.37262543 280.21114807 -132.37985229 279.29251099 C-132.37220856 278.32199799 -132.36456482 277.35148499 -132.35668945 276.3515625 C-132.36034012 275.32352509 -132.36399078 274.29548767 -132.36775208 273.23629761 C-132.37586257 269.83574948 -132.36224292 266.4356771 -132.34765625 263.03515625 C-132.3471377 260.67390951 -132.34765519 258.31266233 -132.34916687 255.95141602 C-132.34907712 251.00172484 -132.3386426 246.05219647 -132.32055664 241.10253906 C-132.29786957 234.75361802 -132.29732518 228.40493492 -132.30407429 222.0559845 C-132.30741361 217.17986939 -132.30078483 212.30380866 -132.29094505 207.42770386 C-132.28709215 205.08649988 -132.28594521 202.74528986 -132.2875309 200.40408325 C-132.28790119 197.13385464 -132.27529105 193.86393262 -132.2590332 190.59375 C-132.26151062 189.623237 -132.26398804 188.652724 -132.26654053 187.65280151 C-132.25945572 186.76118317 -132.25237091 185.86956482 -132.24507141 184.95092773 C-132.24301854 184.17812973 -132.24096567 183.40533173 -132.23885059 182.6091156 C-131.94391566 180.13297838 -131.3173387 178.57620732 -129.984375 176.47265625 C-127.6729469 174.89257845 -125.42288517 173.51538721 -122.984375 172.16015625 C-122.2430835 171.73629639 -121.50179199 171.31243652 -120.73803711 170.87573242 C-119.07363623 169.92442976 -117.40672828 168.97750465 -115.73779297 168.03417969 C-111.74880414 165.77193704 -107.7823258 163.47123273 -103.81323242 161.17431641 C-100.48447293 159.24906482 -97.15281502 157.32892076 -93.8203125 155.41015625 C-88.19630852 152.17165524 -82.57522786 148.92814055 -76.95654297 145.68041992 C-74.78034465 144.4247467 -72.60230324 143.1722619 -70.42236328 141.9230957 C-65.24188421 138.95227532 -60.09379476 135.94558807 -55 132.828125 C-54.05680908 132.2611792 -53.11361816 131.6942334 -52.1418457 131.11010742 C-50.38923806 130.05501906 -48.64713413 128.98218098 -46.91870117 127.88793945 C-42.25733262 125.11104566 -38.77040753 123.68984161 -33.33911133 124.69482422 C-28.5534781 126.27564614 -24.37690585 128.8980874 -20.109375 131.53515625 C-18.26115206 132.65656425 -16.40972867 133.77271962 -14.5546875 134.8828125 C-13.34449951 135.62736694 -13.34449951 135.62736694 -12.10986328 136.38696289 C-9.93688762 137.70010093 -9.93688762 137.70010093 -6.984375 137.47265625 C-5.70060856 134.90512337 -5.8509698 133.07231078 -5.83961487 130.19641113 C-5.83271637 129.07746964 -5.82581787 127.95852814 -5.81871033 126.80567932 C-5.81609695 125.57236374 -5.81348358 124.33904816 -5.81079102 123.06835938 C-5.80052663 121.08163692 -5.79026008 119.09491447 -5.77991188 117.10819244 C-5.76967247 114.96922119 -5.76182563 112.8302523 -5.75457954 110.69126892 C-5.73914952 106.23786507 -5.71520178 101.78453274 -5.68968201 97.33117676 C-5.61841562 84.66663118 -5.55863334 72.00204495 -5.50756836 59.33740234 C-5.47929975 52.34517798 -5.44393961 45.35302509 -5.40091461 38.36087561 C-5.37408665 33.93076666 -5.35621598 29.50073858 -5.34487736 25.07056427 C-5.33363859 21.67263783 -5.30950887 18.27482552 -5.28735352 14.87695312 C-5.28676437 13.64363754 -5.28617523 12.41032196 -5.28556824 11.13963318 C-5.27584991 10.02069168 -5.26613159 8.90175018 -5.25611877 7.74890137 C-5.25188684 6.77255486 -5.2476549 5.79620834 -5.24329472 4.79027557 C-4.83036322 1.09407962 -3.55923765 0.56370125 0 0 Z M-43.7265625 200.6484375 C-44.29134308 200.97426315 -44.85612366 201.30008881 -45.4380188 201.63578796 C-46.63451585 202.32731318 -47.82978781 203.02096175 -49.02392578 203.71655273 C-50.84239323 204.77526942 -52.66495624 205.8266291 -54.48828125 206.87695312 C-59.2586909 209.63693241 -59.2586909 209.63693241 -63.984375 212.47265625 C-64.76022949 212.87291016 -65.53608398 213.27316406 -66.33544922 213.68554688 C-69.00293609 216.57657499 -68.47453677 219.91870233 -68.375 223.640625 C-68.36934021 224.43543777 -68.36368042 225.23025055 -68.35784912 226.04914856 C-68.33546504 228.58676491 -68.28526762 231.12296705 -68.234375 233.66015625 C-68.2143125 235.38083898 -68.19606129 237.10154384 -68.1796875 238.82226562 C-68.13559394 243.03960707 -68.06655465 247.25589194 -67.984375 251.47265625 C-67.21246826 251.91657715 -66.44056152 252.36049805 -65.64526367 252.81787109 C-62.77662846 254.46825958 -59.90852357 256.11956218 -57.04077148 257.77148438 C-55.80042251 258.48571798 -54.55986441 259.19958855 -53.3190918 259.91308594 C-51.5337884 260.93979626 -49.7492457 261.96781772 -47.96484375 262.99609375 C-46.89129639 263.61403809 -45.81774902 264.23198242 -44.71166992 264.86865234 C-42.76737681 266.01214941 -40.8611716 267.22145852 -38.984375 268.47265625 C-34.3769181 268.17646543 -31.18477768 266.72316175 -27.25390625 264.3828125 C-26.20396484 263.76341797 -25.15402344 263.14402344 -24.07226562 262.50585938 C-22.99138672 261.85552734 -21.91050781 261.20519531 -20.796875 260.53515625 C-19.70439453 259.88869141 -18.61191406 259.24222656 -17.48632812 258.57617188 C-13.60387274 256.27253384 -9.74104259 253.97710131 -5.984375 251.47265625 C-5.60531035 248.77785122 -5.4204882 246.31878703 -5.375 243.61328125 C-5.35789978 242.83128357 -5.34079956 242.04928589 -5.32318115 241.24359131 C-5.29481944 239.58602075 -5.2752243 237.92828074 -5.26367188 236.27050781 C-5.23461696 233.7436991 -5.14167654 231.22429737 -5.046875 228.69921875 C-4.6531277 220.51963838 -4.6531277 220.51963838 -7.65649414 213.21826172 C-10.02432255 211.61051283 -12.33926118 210.56036661 -14.984375 209.47265625 C-16.79748386 208.42336209 -18.5981086 207.35224875 -20.38671875 206.26171875 C-22.22983749 205.20365626 -24.07490799 204.14898673 -25.921875 203.09765625 C-26.86611328 202.55238281 -27.81035156 202.00710937 -28.78320312 201.4453125 C-29.68361328 200.93097656 -30.58402344 200.41664063 -31.51171875 199.88671875 C-32.32374756 199.42217285 -33.13577637 198.95762695 -33.97241211 198.47900391 C-37.99073667 196.46911023 -40.0633556 198.52935889 -43.7265625 200.6484375 Z " fill="#323232" transform="translate(594.984375,-0.47265624999999994)"/>
<path d="M0 0 C3.68273712 1.8348074 7.17787163 3.91791987 10.6875 6.0625 C12.83899487 7.34777623 14.99137481 8.63157176 17.14453125 9.9140625 C18.26682129 10.58598633 19.38911133 11.25791016 20.54541016 11.95019531 C25.69564509 15.01901742 30.90916863 17.97787867 36.12109375 20.94021606 C39.05551757 22.60875093 41.98653922 24.28324324 44.91796875 25.95703125 C45.49968842 26.28906052 46.08140808 26.62108978 46.68075562 26.96318054 C53.18701638 30.67682768 59.6906482 34.39491255 66.1875 38.125 C67.24372559 38.72820068 68.29995117 39.33140137 69.38818359 39.95288086 C72.27328859 41.61210683 75.14137478 43.29561213 78 45 C78.86705566 45.51143555 79.73411133 46.02287109 80.62744141 46.54980469 C81.42714355 47.04641602 82.2268457 47.54302734 83.05078125 48.0546875 C83.74469971 48.47991699 84.43861816 48.90514648 85.15356445 49.34326172 C88.15653946 52.03772005 89.75451797 55.10782719 90.27807713 59.14341545 C90.38978155 61.7191215 90.40532346 64.27932109 90.38818359 66.85742188 C90.39606903 68.32194542 90.39606903 68.32194542 90.40411377 69.8160553 C90.4172852 73.03378437 90.40858559 76.25101615 90.3984375 79.46875 C90.40045905 81.71024673 90.40337117 83.95174282 90.40713501 86.1932373 C90.4115545 90.88718945 90.40513921 95.58097015 90.39111328 100.27490234 C90.37402181 106.28733722 90.38386497 112.29937032 90.40183067 118.31179047 C90.41267852 122.93921935 90.40921753 127.56655321 90.4014473 132.19398499 C90.39944807 134.41073148 90.40189481 136.62748665 90.40888596 138.84422302 C90.4165167 141.94390676 90.40487297 145.04294256 90.38818359 148.14257812 C90.39425629 149.05600479 90.40032898 149.96943146 90.40658569 150.91053772 C90.35576356 156.01353328 89.87765121 159.60006302 87 164 C84.33984375 166.02734375 84.33984375 166.02734375 80.9375 167.9375 C80.29466064 168.30536621 79.65182129 168.67323242 78.98950195 169.05224609 C77.51032612 169.89753787 76.02719187 170.73592538 74.54101562 171.56884766 C71.72802999 173.15317911 68.9336046 174.76738483 66.140625 176.38671875 C61.73356851 178.9413176 57.32225177 181.48823734 52.90625 184.02734375 C47.25614507 187.27615408 41.61047918 190.53254588 35.96777344 193.79418945 C33.79296432 195.04944732 31.61654639 196.30192221 29.43847656 197.55151367 C24.26553079 200.52071517 19.11771006 203.51976029 14.015625 206.609375 C12.60083862 207.45302612 12.60083862 207.45302612 11.1574707 208.3137207 C9.40681785 209.35883264 7.66489622 210.41878551 5.93432617 211.49682617 C0.6054878 214.64944384 -3.8168167 216.5362135 -10 215 C-14.57317257 212.98968506 -18.80105269 210.46487438 -23.0625 207.875 C-24.30536776 207.13947835 -25.54936555 206.40586316 -26.79443359 205.67407227 C-29.32718563 204.18180248 -31.85344467 202.67940518 -34.37451172 201.16748047 C-38.63284828 198.61585426 -42.92319586 196.12044001 -47.21606445 193.62744141 C-50.13198331 191.93344306 -53.04288509 190.23107655 -55.953125 188.52734375 C-63.64687552 184.03084745 -71.37130744 179.58752523 -79.09814453 175.14819336 C-81.11170001 173.98954549 -83.12303523 172.82702825 -85.13183594 171.66015625 C-87.04922937 170.55032689 -88.97449639 169.45399396 -90.90722656 168.37109375 C-91.80666992 167.85675781 -92.70611328 167.34242188 -93.6328125 166.8125 C-94.4283252 166.36519531 -95.22383789 165.91789063 -96.04345703 165.45703125 C-98.31293567 163.76695781 -98.93688696 162.59990172 -100 160 C-100.26006222 157.86633396 -100.26006222 157.86633396 -100.27415466 155.52845764 C-100.28412979 154.63828445 -100.29410492 153.74811127 -100.30438232 152.83096313 C-100.305047 151.86202118 -100.30571167 150.89307922 -100.30639648 149.89477539 C-100.31472 148.86834427 -100.32304352 147.84191315 -100.33161926 146.78437805 C-100.35573016 143.38876564 -100.3644921 139.9933452 -100.37109375 136.59765625 C-100.38005808 134.23880454 -100.38917989 131.87995342 -100.39845276 129.52110291 C-100.41494747 124.57565935 -100.42264397 119.63028355 -100.42553711 114.68481445 C-100.43092633 108.3447578 -100.4686274 102.00533663 -100.51428127 95.66545963 C-100.54400508 90.79359096 -100.55125963 85.92187633 -100.55226326 81.04992485 C-100.55647357 78.71230593 -100.56894013 76.37468687 -100.58978081 74.03715706 C-100.61660153 70.76916672 -100.61189702 67.50266291 -100.59936523 64.23461914 C-100.61419952 63.26770142 -100.62903381 62.30078369 -100.64431763 61.30456543 C-100.59397841 56.70048728 -100.53445196 54.67950218 -97.60992432 50.96125793 C-95.18185695 49.13665852 -92.81238554 47.48267147 -90.17578125 45.9765625 C-89.24330566 45.43845947 -88.31083008 44.90035645 -87.35009766 44.34594727 C-86.34769043 43.77803467 -85.3452832 43.21012207 -84.3125 42.625 C-83.25595215 42.017771 -82.1994043 41.41054199 -81.11083984 40.78491211 C-78.87309323 39.4994016 -76.63346354 38.21716423 -74.39208984 36.93798828 C-70.03295739 34.44750365 -65.68705861 31.93446072 -61.34106445 29.42114258 C-58.10443057 27.55061242 -54.86496914 25.68505864 -51.625 23.8203125 C-47.66445343 21.53946202 -43.7081634 19.2516257 -39.75808716 16.95271301 C-38.00977992 15.9353784 -36.26062631 14.91951406 -34.51123047 13.90405273 C-32.3315143 12.63818296 -30.1533277 11.36967382 -27.97705078 10.09790039 C-24.99924272 8.37111702 -22.00595847 6.67725196 -19 5 C-17.95166992 4.40590332 -16.90333984 3.81180664 -15.82324219 3.19970703 C-5.88781989 -2.15998878 -5.88781989 -2.15998878 0 0 Z " fill="#67A557" transform="translate(332,124)"/>
<path d="M0 0 C2.35925843 1.16723952 4.60240501 2.45109748 6.8605957 3.8034668 C8.14643555 4.54173706 8.14643555 4.54173706 9.45825195 5.29492188 C12.24962807 6.90392361 15.02393346 8.53999366 17.7980957 10.1784668 C19.68137793 11.27494975 21.56550116 12.36998943 23.45043945 13.46362305 C27.42479613 15.77318224 31.39227096 18.09408354 35.35668945 20.4206543 C41.72202413 24.14684835 48.12581163 27.80325371 54.53588867 31.45166016 C59.62815442 34.352085 64.7125991 37.2661968 69.7980957 40.1784668 C71.0991626 40.9204834 71.0991626 40.9204834 72.42651367 41.67749023 C74.55674457 42.8964186 76.67895679 44.12788806 78.7980957 45.3659668 C79.8912207 45.99889648 80.9843457 46.63182617 82.1105957 47.28393555 C85.8427681 49.9149001 88.46839783 52.34713095 89.29866695 56.95893383 C89.29887624 57.97676103 89.29908552 58.99458822 89.29930115 60.04325867 C89.30913528 61.21680908 89.31896942 62.3903595 89.32910156 63.59947205 C89.31943359 64.87810623 89.30976563 66.15674042 89.29980469 67.47412109 C89.30358969 68.84105994 89.30909123 70.20799494 89.31617737 71.57492065 C89.33012199 75.27934978 89.31897137 78.98331397 89.30246615 82.6877172 C89.28860781 86.56385389 89.2950763 90.43996381 89.29859924 94.31611633 C89.30129979 100.82182303 89.28783597 107.32734505 89.26464844 113.83300781 C89.23800604 121.36022606 89.23630274 128.88713622 89.2480368 136.4143855 C89.25880311 143.65299919 89.25263876 150.89150116 89.23848152 158.13010597 C89.23271508 161.21263067 89.23280944 164.29507379 89.23754692 167.37759972 C89.24230779 171.00317355 89.23225266 174.6284084 89.21059227 178.25391769 C89.2023454 180.22394438 89.20888675 182.19401539 89.21578979 184.16404724 C89.20588516 185.32913818 89.19598053 186.49422913 89.18577576 187.69462585 C89.18213091 189.21967003 89.18213091 189.21967003 89.17841244 190.77552319 C89.05290792 191.56849458 88.92740339 192.36146597 88.7980957 193.1784668 C85.7980957 195.1784668 85.7980957 195.1784668 82.48779297 194.99975586 C78.70280685 194.15725647 76.09882492 192.98752888 72.76293945 191.0378418 C71.63364014 190.38517334 70.50434082 189.73250488 69.34082031 189.06005859 C68.13885346 188.34990921 66.93711656 187.6393705 65.7355957 186.9284668 C64.4946588 186.20467727 63.25319762 185.4817859 62.01123047 184.75976562 C59.49084938 183.29166032 56.97477685 181.81655501 54.4621582 180.33520508 C51.0411712 178.31865526 47.60830787 176.323046 44.1730957 174.33081055 C42.19341264 173.17674801 40.21421658 172.0218495 38.2355957 170.8659668 C37.32092529 170.33390625 36.40625488 169.8018457 35.46386719 169.25366211 C34.62412354 168.75833984 33.78437988 168.26301758 32.91918945 167.75268555 C32.19143311 167.32560303 31.46367676 166.89852051 30.71386719 166.45849609 C27.51082092 164.31836973 26.03137335 162.87829975 24.7980957 159.1784668 C24.69040595 157.03789604 24.64191295 154.89418384 24.62451172 152.75097656 C24.61782471 152.10347443 24.6111377 151.45597229 24.60424805 150.78884888 C24.5902131 149.38438854 24.5783141 147.9799056 24.56830025 146.57541084 C24.55186885 144.35186156 24.52863081 142.12847987 24.50340271 139.90501404 C24.4326819 133.5837338 24.3724972 127.26238588 24.32128906 120.94091797 C24.28947889 117.07294624 24.24820077 113.20516887 24.20109367 109.33735466 C24.18508878 107.86421137 24.17276021 106.39102335 24.16418648 104.91781807 C24.1520175 102.85679532 24.12786252 100.7962288 24.10107422 98.73535156 C24.08561302 96.97687645 24.08561302 96.97687645 24.06983948 95.18287659 C23.80515123 92.25647298 23.41086139 90.6038155 21.7980957 88.1784668 C19.46150115 86.46081849 19.46150115 86.46081849 16.6418457 84.97924805 C15.61961914 84.41012695 14.59739258 83.84100586 13.54418945 83.25463867 C12.47297852 82.67262695 11.40176758 82.09061523 10.2980957 81.4909668 C8.6912793 80.60054687 8.6912793 80.60054687 7.05200195 79.69213867 C-1.05608675 74.98517946 -1.05608675 74.98517946 -10.2019043 74.1784668 C-13.22454861 75.34278043 -13.22454861 75.34278043 -16.06518555 77.1003418 C-17.11641602 77.71393555 -18.16764648 78.3275293 -19.25073242 78.9597168 C-20.86625 79.93424805 -20.86625 79.93424805 -22.5144043 80.9284668 C-23.61075195 81.56268555 -24.70709961 82.1969043 -25.83666992 82.8503418 C-32.3087856 86.31878349 -32.3087856 86.31878349 -36.2019043 92.1784668 C-36.5090338 95.25592687 -36.5090338 95.25592687 -36.47314453 98.70361328 C-36.48098465 99.67267609 -36.48098465 99.67267609 -36.48898315 100.66131592 C-36.49919963 102.05974851 -36.50499945 103.45821888 -36.50686455 104.85668755 C-36.5105357 107.07228626 -36.52728195 109.28744036 -36.54762268 111.50294495 C-36.60296549 117.80038174 -36.63371505 124.09788343 -36.65820312 130.39550781 C-36.67409982 134.25171231 -36.70433897 138.10760004 -36.74296761 141.96364021 C-36.75459739 143.43037612 -36.76054778 144.89716872 -36.76064873 146.36395073 C-36.76084133 148.41761122 -36.77914571 150.47040094 -36.80126953 152.52392578 C-36.80634018 153.69100571 -36.81141083 154.85808563 -36.81663513 156.06053162 C-37.33858333 160.28459312 -38.80685434 162.99413328 -42.04614258 165.74414062 C-48.26764768 169.67902934 -54.62865109 173.31578811 -61.0769043 176.8659668 C-70.52379165 182.07929658 -70.52379165 182.07929658 -79.8112793 187.5690918 C-81.08962646 188.34313354 -81.08962646 188.34313354 -82.39379883 189.1328125 C-83.97210536 190.09490483 -85.54150577 191.07182267 -87.09985352 192.06591797 C-90.87733214 194.35264933 -92.61734704 195.20094977 -97.1628418 195.02612305 C-100.2019043 194.1784668 -100.2019043 194.1784668 -101.2019043 193.1784668 C-101.30922599 191.38041942 -101.34601223 189.57813732 -101.35580444 187.7769165 C-101.36440491 186.60478607 -101.37300537 185.43265564 -101.38186646 184.2250061 C-101.3861264 182.92735321 -101.39038635 181.62970032 -101.39477539 180.29272461 C-101.4026733 178.92139476 -101.41094205 177.550067 -101.41955566 176.17874146 C-101.44581602 171.66304521 -101.46108917 167.1473395 -101.4753418 162.6315918 C-101.48070019 161.07866153 -101.48607769 159.52573134 -101.49147415 157.97280121 C-101.51311047 151.51327443 -101.53184727 145.05375019 -101.54309654 138.59419632 C-101.55933483 129.3298211 -101.59250059 120.06586541 -101.64949739 110.80164838 C-101.68818359 104.2920497 -101.70772775 97.78256329 -101.71301711 91.27285266 C-101.716673 87.38303835 -101.72871809 83.49367107 -101.76111984 79.60398102 C-101.79117715 75.943085 -101.79752129 72.28290697 -101.78573608 68.62191391 C-101.78540984 66.63922156 -101.80989236 64.6565737 -101.83511353 62.67404175 C-101.76700073 52.98413097 -101.76700073 52.98413097 -98.82748413 49.94664001 C-96.20092515 48.1778074 -93.62523448 46.49313593 -90.8425293 44.97924805 C-89.81844971 44.41536377 -88.79437012 43.85147949 -87.73925781 43.27050781 C-86.11201782 42.38963501 -86.11201782 42.38963501 -84.4519043 41.4909668 C-82.1737937 40.23715076 -79.89645039 38.98193963 -77.61987305 37.7253418 C-76.51305176 37.11625977 -75.40623047 36.50717773 -74.26586914 35.87963867 C-70.39344658 33.72959561 -66.57022755 31.50626903 -62.7644043 29.2409668 C-54.49265218 24.32845366 -46.16311964 19.51834968 -37.8137207 14.73901367 C-32.85364115 11.89386603 -27.91773283 9.03309655 -23.07299805 5.99487305 C-22.3130957 5.52436523 -21.55319336 5.05385742 -20.77026367 4.5690918 C-19.40805539 3.72005272 -18.05530477 2.85552041 -16.71557617 1.97143555 C-11.29527098 -1.38371601 -6.08751919 -2.2712609 0 0 Z " fill="#323232" transform="translate(101.201904296875,122.821533203125)"/>
<path d="M0 0 C1.65512345 0.81296862 3.28415424 1.67977232 4.89453125 2.578125 C5.87180176 3.12178711 6.84907227 3.66544922 7.85595703 4.22558594 C9.4122583 5.1039209 9.4122583 5.1039209 11 6 C12.03366699 6.58297852 13.06733398 7.16595703 14.13232422 7.76660156 C17.48886573 9.66937058 20.83935157 11.58252093 24.1875 13.5 C24.79227173 13.84593201 25.39704346 14.19186401 26.0201416 14.54827881 C36.4008985 20.48707054 46.74737318 26.48297978 57.0625 32.53515625 C61.25350872 34.9909132 65.46428973 37.40865454 69.6875 39.80859375 C71.33443848 40.750979 71.33443848 40.750979 73.01464844 41.71240234 C75.11744558 42.9148621 77.22465718 44.10964621 79.33691406 45.29541016 C80.28276367 45.83858887 81.22861328 46.38176758 82.203125 46.94140625 C83.03489258 47.41263916 83.86666016 47.88387207 84.72363281 48.36938477 C87.50014835 50.358268 89.18426562 52.09211762 91 55 C91.40240002 57.65344596 91.58570597 59.88391597 91.56640625 62.53125 C91.57260483 63.24478638 91.57880341 63.95832275 91.58518982 64.69348145 C91.59226704 66.19619386 91.58915055 67.69898503 91.57641602 69.20166016 C91.56253641 71.49398644 91.59665607 73.7822361 91.63476562 76.07421875 C91.63571685 77.53906349 91.63385782 79.00391332 91.62890625 80.46875 C91.64216446 81.14909302 91.65542267 81.82943604 91.66908264 82.53039551 C91.59560549 86.30692632 91.09682968 87.88217025 88.67089844 90.83422852 C86.6812148 92.44761824 84.85218682 93.9220589 82.63671875 95.18359375 C82.00910645 95.54678711 81.38149414 95.90998047 80.73486328 96.28417969 C80.0592334 96.66477539 79.38360352 97.04537109 78.6875 97.4375 C77.17826922 98.30578765 75.66916215 99.17429034 74.16015625 100.04296875 C73.34047363 100.51138184 72.52079102 100.97979492 71.67626953 101.46240234 C68.75233661 103.14229009 65.84207898 104.84429306 62.93359375 106.55078125 C61.88921143 107.1631665 60.8448291 107.77555176 59.76879883 108.40649414 C57.72552585 109.60465787 55.68238683 110.80305009 53.6394043 112.00170898 C51.71803428 113.12399778 49.79304338 114.24011348 47.86425781 115.34960938 C45.90117368 116.48074207 43.94777255 117.62879933 42.00292969 118.79101562 C41.04032227 119.34982422 40.07771484 119.90863281 39.0859375 120.484375 C38.22790527 120.99194336 37.36987305 121.49951172 36.48583984 122.02246094 C33.48942498 123.20078004 32.02123052 123.02434101 29 122 C26.25417491 119.25417491 26.7466888 117.65899696 26.7265625 113.8203125 C26.7059375 112.58152344 26.6853125 111.34273438 26.6640625 110.06640625 C26.63809891 107.44667982 26.61982299 104.8268655 26.609375 102.20703125 C26.58617187 100.96566406 26.56296875 99.72429687 26.5390625 98.4453125 C26.53084473 97.30594238 26.52262695 96.16657227 26.51416016 94.99267578 C25.87794499 91.28957724 24.93124852 90.29191637 22 88 C17.97600816 85.35450596 13.75946695 83.04665726 9.5625 80.6875 C8.43005859 80.02943359 7.29761719 79.37136719 6.13085938 78.69335938 C5.03708984 78.07654297 3.94332031 77.45972656 2.81640625 76.82421875 C1.82068604 76.25791748 0.82496582 75.69161621 -0.20092773 75.1081543 C-3.48482329 73.80805819 -4.70045238 73.83437623 -8 75 C-10.01286313 76.04268382 -11.98473774 77.16633472 -13.921875 78.34375 C-15.02917969 79.01277344 -16.13648438 79.68179688 -17.27734375 80.37109375 C-18.43491422 81.08069918 -19.59246608 81.79033495 -20.75 82.5 C-21.9227872 83.21027957 -23.09596069 83.91992175 -24.26953125 84.62890625 C-29.40412836 87.45174346 -29.40412836 87.45174346 -34 91 C-34.48549161 95.85676916 -34.65641834 100.71180174 -34.78955078 105.58959961 C-34.84612113 107.22674544 -34.92782023 108.86323227 -35.03564453 110.49780273 C-35.57892236 118.35892378 -35.57892236 118.35892378 -34 126 C-30.71757046 129.47339909 -27.17922834 131.3033676 -22.81481934 133.18600464 C-19.943488 134.47387409 -17.29094394 136.10979215 -14.58984375 137.71875 C-12.37363512 138.98134445 -10.15614235 140.24168702 -7.9375 141.5 C-6.72715626 142.18880262 -5.51695454 142.87785486 -4.30688477 143.56713867 C-1.79890143 144.99545592 0.70967718 146.42271861 3.21875 147.84912109 C6.93952273 149.96488516 10.65773506 152.0851114 14.375 154.20703125 C14.97458527 154.54911118 15.57417053 154.8911911 16.19192505 155.24363708 C19.15397663 156.93428807 22.11389143 158.62850517 25.06982422 160.32983398 C30.32922692 163.35273365 35.59685109 166.34026311 40.9453125 169.203125 C41.83919678 169.69127686 42.73308105 170.17942871 43.65405273 170.68237305 C45.28589124 171.5713374 46.92812403 172.44160829 48.58227539 173.28833008 C52.48621823 175.44062315 53.74748852 176.22233174 55.17578125 180.62109375 C55 184 55 184 53.78979492 185.53442383 C51.69598676 187.24894168 49.55713613 188.51807504 47.1875 189.828125 C46.2070874 190.37388184 45.2266748 190.91963867 44.21655273 191.48193359 C42.62435913 192.35712646 42.62435913 192.35712646 41 193.25 C38.74062725 194.49692816 36.4815223 195.74434167 34.22265625 196.9921875 C33.63702408 197.31486603 33.05139191 197.63754456 32.44801331 197.97000122 C28.76292463 200.00574666 25.1038771 202.08146818 21.46127319 204.19226074 C19.04429037 205.59180919 16.62000867 206.97843191 14.19506836 208.36413574 C12.46919355 209.35677148 10.75303156 210.36623372 9.03710938 211.37597656 C-1.03142462 217.09853415 -1.03142462 217.09853415 -5.94506836 216.60888672 C-10.84444261 215.15717716 -15.13381804 212.46957076 -19.5 209.875 C-20.59586426 209.24263428 -21.69172852 208.61026855 -22.82080078 207.95874023 C-26.22420596 205.98964466 -29.61305047 203.99724149 -33 202 C-35.00724868 200.82585851 -37.01503934 199.65264295 -39.0234375 198.48046875 C-41.95339598 196.77000518 -44.88242715 195.05813498 -47.80737305 193.33911133 C-56.66890796 188.14511993 -65.64089744 183.16186545 -74.65380859 178.23657227 C-95.34224693 166.86627203 -95.34224693 166.86627203 -99 161 C-99.58712327 157.62486319 -99.53628187 154.29171077 -99.50170898 150.87304688 C-99.50711197 149.8562233 -99.51251495 148.83939972 -99.51808167 147.79176331 C-99.53057923 144.43379527 -99.51407038 141.07668284 -99.49609375 137.71875 C-99.49624871 135.38374791 -99.49773725 133.04874557 -99.50050354 130.71374512 C-99.501888 125.82125471 -99.48932116 120.92905728 -99.46655273 116.03662109 C-99.43816835 109.76509579 -99.44090499 103.49405736 -99.45364285 97.22249603 C-99.46059754 92.40122316 -99.45281306 87.58006283 -99.44038582 82.75880432 C-99.4358693 80.44633923 -99.43553626 78.13386206 -99.43945122 75.82139587 C-99.44236129 72.58966299 -99.42586538 69.35860122 -99.40405273 66.12695312 C-99.40855438 65.17095718 -99.41305603 64.21496124 -99.41769409 63.22999573 C-99.36295373 58.34914247 -99.22769456 54.93387629 -96 51 C-93.68530273 49.29345703 -93.68530273 49.29345703 -90.93359375 47.7578125 C-89.90427734 47.17451172 -88.87496094 46.59121094 -87.81445312 45.99023438 C-86.70005859 45.37470703 -85.58566406 44.75917969 -84.4375 44.125 C-83.26553279 43.46551179 -82.0943208 42.80467988 -80.92382812 42.14257812 C-78.49231264 40.76853957 -76.05765414 39.40033165 -73.62060547 38.03613281 C-68.04947413 34.91124895 -62.52748962 31.70121458 -57 28.5 C-54.85307052 27.26136173 -52.7059339 26.02308243 -50.55859375 24.78515625 C-46.6179374 22.51190607 -42.67869595 20.23624488 -38.74136353 17.95724487 C-36.98341931 16.93982294 -35.22515558 15.92295539 -33.46679688 14.90625 C-31.27345599 13.6378119 -29.08070153 12.36835898 -26.88867188 11.09765625 C-21.93409887 8.23374122 -16.96591285 5.39531656 -11.96484375 2.61328125 C-11.09335693 2.12770752 -10.22187012 1.64213379 -9.32397461 1.1418457 C-5.82251892 -0.57853546 -3.83316943 -0.82139345 0 0 Z " fill="#323232" transform="translate(794,123)"/>
<path d="M0 0 C1.23338351 0.72333878 2.46761296 1.44523683 3.70263672 2.16577148 C6.23776249 3.64706316 8.76849141 5.13546114 11.29589844 6.62988281 C15.82049514 9.30178212 20.37501665 11.9209632 24.9309082 14.5390625 C28.1199206 16.3720804 31.30447222 18.21264921 34.48828125 20.0546875 C38.45462011 22.34726402 42.42598338 24.6305966 46.40429688 26.90229797 C48.7986353 28.26981973 51.19120533 29.64041942 53.5836792 31.01119995 C55.26714469 31.974059 56.95311978 32.93252607 58.63916016 33.89086914 C59.66187012 34.47731201 60.68458008 35.06375488 61.73828125 35.66796875 C62.63587158 36.17996826 63.53346191 36.69196777 64.45825195 37.21948242 C69.70787219 40.50963438 73.88067266 43.71033427 75.5680542 49.89433289 C76.16970978 53.95903618 76.15584228 57.9617965 76.16113281 62.06567383 C76.16609772 62.98989639 76.17106262 63.91411896 76.17617798 64.86634827 C76.19075748 67.9174169 76.19759441 70.96843354 76.203125 74.01953125 C76.20887969 76.14556377 76.21463739 78.27159628 76.22039795 80.39762878 C76.2308958 84.85371136 76.2367465 89.30977595 76.24023438 93.76586914 C76.24571805 99.46534163 76.26974869 105.1645751 76.29820633 110.86397266 C76.3168632 115.2555561 76.32203993 119.64708229 76.32357025 124.03870201 C76.32659015 126.13937373 76.33459622 128.24004459 76.34775543 130.34067726 C76.36488036 133.28434895 76.36291993 136.22744079 76.35644531 139.17114258 C76.3656601 140.03219604 76.37487488 140.89324951 76.3843689 141.78039551 C76.33866742 148.43996051 75.17664678 153.95375034 71.04296875 159.3828125 C66.45107384 163.04925491 61.42945714 165.81799218 56.3125 168.6875 C55.15136509 169.34671186 53.99072936 170.00680368 52.83056641 170.66772461 C50.42136926 172.03925373 48.01007943 173.40698933 45.59716797 174.77197266 C40.0040225 177.93977352 34.44072401 181.15935141 28.875 184.375 C27.8120874 184.98754639 26.7491748 185.60009277 25.65405273 186.23120117 C20.1961998 189.37832138 14.74779663 192.54062782 9.3125 195.7265625 C8.2311377 196.36005615 7.14977539 196.9935498 6.03564453 197.64624023 C3.99358244 198.84393662 1.95279913 200.04381721 -0.08642578 201.24633789 C-1.90327931 202.31211743 -3.72609337 203.36782327 -5.55566406 204.41162109 C-7.0641939 205.27617804 -8.55939655 206.16511625 -10.03027344 207.09228516 C-15.78482144 210.46956873 -21.46161173 211.01790119 -28 209.8125 C-32.78146676 207.83189832 -37.06216825 205.24941505 -41.4375 202.5 C-42.59163451 201.80031305 -43.74723032 201.10303065 -44.90429688 200.40820312 C-47.95076195 198.56536774 -50.97591191 196.69170323 -54 194.8125 C-54.94367432 194.32628174 -55.88734863 193.84006348 -56.85961914 193.33911133 C-57.91910767 192.58343872 -57.91910767 192.58343872 -59 191.8125 C-59 190.4925 -59 189.1725 -59 187.8125 C-58.31292969 187.54695312 -57.62585938 187.28140625 -56.91796875 187.0078125 C-55.56638672 186.47800781 -55.56638672 186.47800781 -54.1875 185.9375 C-52.84751953 185.41542969 -52.84751953 185.41542969 -51.48046875 184.8828125 C-48.82288409 183.82417845 -48.82288409 183.82417845 -46 181.8125 C-42.3052312 182.14249649 -39.81038676 183.32051416 -36.75 185.3515625 C-35.9765625 185.84914063 -35.203125 186.34671875 -34.40625 186.859375 C-32.79849132 187.91381414 -31.19432231 188.97374651 -29.59375 190.0390625 C-28.43359375 190.7815625 -28.43359375 190.7815625 -27.25 191.5390625 C-26.55390625 191.99877441 -25.8578125 192.45848633 -25.140625 192.93212891 C-22.34163837 194.08326323 -20.85962237 193.69370429 -18 192.8125 C-15.53897275 191.49878439 -13.18528912 190.14488679 -10.8125 188.6875 C-9.28725898 187.77080195 -7.76116051 186.8555296 -6.234375 185.94140625 C-5.39970703 185.44012207 -4.56503906 184.93883789 -3.70507812 184.42236328 C1.31161207 181.43679874 6.37720079 178.53581499 11.4375 175.625 C13.66276212 174.34245087 15.88802251 173.05989874 18.11328125 171.77734375 C22.20017201 169.42368296 26.28800936 167.07168218 30.37678528 164.72129822 C32.15129074 163.70099575 33.92543737 162.68007224 35.69946289 161.65893555 C37.92317007 160.37916679 40.14757649 159.10061196 42.37280273 157.82348633 C43.38673096 157.23978271 44.40065918 156.6560791 45.4453125 156.0546875 C46.32719238 155.5479248 47.20907227 155.04116211 48.11767578 154.51904297 C49.06884277 153.95588379 50.02000977 153.39272461 51 152.8125 C51.65878584 152.50432563 52.31757168 152.19615126 52.99632072 151.87863827 C57.26308816 149.72802363 57.26308816 149.72802363 59.74264717 145.84024429 C60.02687882 143.37116788 60.05542343 141.00916687 60 138.52416992 C60.01092178 137.59685059 60.02184357 136.66953125 60.03309631 135.71411133 C60.05976054 132.65594474 60.03015696 129.60105885 60 126.54296875 C60.00751868 124.42017633 60.01855273 122.29739369 60.03295898 120.17463684 C60.06139855 114.59295657 60.04209799 109.01242271 60.01287842 103.43078613 C59.99149047 97.73307792 60.01521767 92.03557758 60.03515625 86.33789062 C60.06761032 75.1625017 60.04963514 63.9878047 60 52.8125 C59.22618484 52.50910706 58.45236969 52.20571411 57.65510559 51.89312744 C54.93073932 50.78431092 52.45161709 49.48506459 49.88671875 48.046875 C48.89873291 47.49394775 47.91074707 46.94102051 46.89282227 46.37133789 C45.83506592 45.77442139 44.77730957 45.17750488 43.6875 44.5625 C42.57882568 43.93915771 41.47015137 43.31581543 40.32788086 42.67358398 C32.87080328 38.46758296 25.45382214 34.19555814 18.0625 29.875 C17.09683105 29.31192139 16.13116211 28.74884277 15.13623047 28.16870117 C10.31045831 25.35042161 5.49572007 22.51553721 0.7013092 19.64430237 C-1.67818058 18.22266425 -4.06446295 16.8126931 -6.45193481 15.4045105 C-8.15312475 14.39539087 -9.84511489 13.3708133 -11.53686523 12.34594727 C-12.57012939 11.73807373 -13.60339355 11.1302002 -14.66796875 10.50390625 C-15.57828857 9.95935791 -16.4886084 9.41480957 -17.42651367 8.85375977 C-20.5525102 7.58894853 -21.83234985 7.73812678 -25 8.8125 C-27.60634704 10.0580272 -27.60634704 10.0580272 -30.26171875 11.6640625 C-31.28475098 12.26033447 -32.3077832 12.85660645 -33.36181641 13.47094727 C-34.45929199 14.11990967 -35.55676758 14.76887207 -36.6875 15.4375 C-37.8477084 16.11654975 -39.00836111 16.79484087 -40.16943359 17.47241211 C-42.58227311 18.88122425 -44.99316635 20.2932863 -47.40283203 21.70751953 C-52.9576002 24.96337662 -58.54332008 28.16558692 -64.125 31.375 C-70.73243031 35.17833324 -77.32920674 38.99820376 -83.8984375 42.8671875 C-85.00687012 43.51872803 -86.11530273 44.17026855 -87.25732422 44.84155273 C-89.37837494 46.0898778 -91.49728476 47.34184949 -93.61376953 48.59790039 C-95.02698486 49.42922485 -95.02698486 49.42922485 -96.46875 50.27734375 C-97.29826172 50.768396 -98.12777344 51.25944824 -98.98242188 51.76538086 C-101 52.8125 -101 52.8125 -103 52.8125 C-103.26375564 65.02613945 -103.43495023 77.23729551 -103.48965549 89.45376396 C-103.51793643 95.1275485 -103.57746512 100.79733748 -103.7097168 106.46972656 C-103.8363145 111.94984452 -103.87911422 117.42493846 -103.86509514 122.90643692 C-103.8742436 124.99183471 -103.91303952 127.07732958 -103.98260689 129.16158676 C-104.68409655 140.08956692 -104.68409655 140.08956692 -100.3700676 149.64414215 C-96.35772835 152.84632687 -91.9508172 154.97923404 -87.21362114 156.89917374 C-84.28892726 158.10588417 -81.50012217 159.53679679 -78.68796635 160.98270988 C-74.60343042 162.99063353 -72.69715489 163.03700751 -68.3125 161.625 C-64.86122898 159.73656869 -64.31682473 159.29460279 -63 155.8125 C-62.69738847 153.82278494 -62.69738847 153.82278494 -62.72825623 151.73164368 C-62.7185379 150.92824554 -62.70881958 150.12484741 -62.69880676 149.29710388 C-62.69821762 148.42473587 -62.69762848 147.55236786 -62.69702148 146.65356445 C-62.68436249 145.26521393 -62.68436249 145.26521393 -62.67144775 143.84881592 C-62.64566729 140.79113249 -62.63353101 137.7335455 -62.62109375 134.67578125 C-62.60492293 132.55396252 -62.58774338 130.43215125 -62.56959534 128.31034851 C-62.52389886 122.72618042 -62.48909338 117.14200248 -62.45739746 111.55773926 C-62.40552166 102.60804889 -62.3405603 93.65846775 -62.26918221 84.7089138 C-62.24627156 81.57510225 -62.23005277 78.44130479 -62.21446228 75.30744934 C-62.20106228 73.39938194 -62.18744806 71.49131603 -62.17358398 69.58325195 C-62.17097061 68.70481125 -62.16835724 67.82637054 -62.16566467 66.92131042 C-62.11363841 60.92613841 -62.11363841 60.92613841 -61 59.8125 C-58.64686445 59.73978259 -56.29166332 59.72879132 -53.9375 59.75 C-52.00197266 59.76353516 -52.00197266 59.76353516 -50.02734375 59.77734375 C-49.02832031 59.78894531 -48.02929688 59.80054688 -47 59.8125 C-45.33857067 63.13535866 -45.85280227 66.85633862 -45.85473633 70.50976562 C-45.85137772 71.41083038 -45.8480191 72.31189514 -45.84455872 73.24026489 C-45.83502525 76.23310714 -45.83310388 79.22589349 -45.83203125 82.21875 C-45.82881845 84.29943871 -45.82545435 86.3801272 -45.82194519 88.46081543 C-45.81594661 92.83228071 -45.81410585 97.20372621 -45.81469727 101.57519531 C-45.8147985 107.15904181 -45.80118981 112.74276004 -45.78392506 118.32657623 C-45.77276411 122.62988865 -45.77077938 126.93317057 -45.77130699 131.23649597 C-45.77013137 133.29363951 -45.76573318 135.35078396 -45.75797462 137.40791321 C-45.74809966 140.29872371 -45.75108306 143.18926259 -45.75708008 146.08007812 C-45.75146057 146.9199527 -45.74584106 147.75982727 -45.74005127 148.62515259 C-45.78387762 157.00266778 -46.45624824 165.1907965 -52 171.8125 C-58.834068 178.34943461 -65.08751195 179.35881252 -74.296875 179.17578125 C-86.7165437 177.95739603 -97.67152502 170.34622086 -108 163.8125 C-108.90878906 163.24015625 -109.81757813 162.6678125 -110.75390625 162.078125 C-115.2332022 159.00943606 -117.38896239 156.08231461 -119 150.8125 C-119.41936126 147.52586077 -119.42065846 144.27520059 -119.40405273 140.96508789 C-119.41091599 140.00155899 -119.41777924 139.03803009 -119.42485046 138.04530334 C-119.44308161 134.87510242 -119.43928617 131.70539811 -119.43359375 128.53515625 C-119.43815726 126.3222996 -119.44346334 124.10944437 -119.44947815 121.89659119 C-119.458402 117.26409133 -119.45599423 112.63176393 -119.44604492 107.99926758 C-119.43455554 102.0732899 -119.45477045 96.14790812 -119.48396206 90.22200871 C-119.50233921 85.65368389 -119.50202855 81.08550149 -119.49632454 76.51714897 C-119.49617152 74.33274945 -119.50220014 72.14834015 -119.51461601 69.96397591 C-119.52955267 66.90537634 -119.51882875 63.84787275 -119.50170898 60.78930664 C-119.51621094 59.44633514 -119.51621094 59.44633514 -119.53100586 58.07623291 C-119.46225497 52.18769963 -118.3113201 47.73879236 -115 42.8125 C-111.76299737 39.71341809 -108.12412997 37.60844779 -104.23046875 35.4140625 C-103.10705078 34.77726562 -101.98363281 34.14046875 -100.82617188 33.484375 C-99.9375647 32.98454102 -99.9375647 32.98454102 -99.03100586 32.47460938 C-95.86326896 30.69252139 -92.70372498 28.89599256 -89.54296875 27.1015625 C-88.90221405 26.73830872 -88.26145935 26.37505493 -87.60128784 26.00079346 C-81.70483666 22.65460731 -75.84875065 19.24131766 -70 15.8125 C-66.00132656 13.47688962 -62.00068797 11.14465749 -58 8.8125 C-57.41079773 8.46840088 -56.82159546 8.12430176 -56.21453857 7.76977539 C-52.41633063 5.5518837 -48.613402 3.34244708 -44.80444336 1.14306641 C-43.57466548 0.43128441 -42.34643026 -0.28317061 -41.11987305 -1.00048828 C-39.40573747 -2.002351 -37.68538343 -2.99355065 -35.96484375 -3.984375 C-34.9812085 -4.55510742 -33.99757324 -5.12583984 -32.98413086 -5.71386719 C-20.16286203 -12.04530617 -11.38151749 -6.80851267 0 0 Z " fill="#679F62" transform="translate(459,332.1875)"/>
<path d="M0 0 C4.89505064 5.19352934 6.84171563 10.72878977 7.1875 17.875 C7 21 7 21 6 22 C3.64686445 22.07271741 1.29166332 22.08370868 -1.0625 22.0625 C-2.99802734 22.04896484 -2.99802734 22.04896484 -4.97265625 22.03515625 C-5.97167969 22.02355469 -6.97070312 22.01195312 -8 22 C-8.45439453 20.98679687 -8.45439453 20.98679687 -8.91796875 19.953125 C-12.16960419 12.92543883 -12.16960419 12.92543883 -18 8 C-22.68717841 6.5426161 -27.44851615 6.77678037 -32.3125 6.75 C-33.23740234 6.729375 -34.16230469 6.70875 -35.11523438 6.6875 C-40.85844662 6.65484492 -44.96517039 7.15335922 -50 10 C-52.05925681 13.08888522 -52.2390374 13.70935927 -52.125 17.1875 C-52.08375 18.445625 -52.0425 19.70375 -52 21 C-40.92478839 23.62896437 -29.86063549 25.80325838 -18.58984375 27.42871094 C-9.28442331 28.86151995 0.39018492 30.89444879 7 38 C11.09459768 44.4148697 10.73872624 51.59594834 10 59 C8.35359645 65.76201456 4.80073646 70.25130272 -1 74 C-15.77812169 82.32299419 -34.65297959 81.70922732 -50.7578125 77.96875 C-59.00505981 75.50451225 -65.30320795 71.33157783 -70 64 C-72.08835271 59.12469973 -73.43939764 54.33554281 -73 49 C-71 47 -71 47 -67.9609375 46.8046875 C-66.77757812 46.82789063 -65.59421875 46.85109375 -64.375 46.875 C-63.18648438 46.89304687 -61.99796875 46.91109375 -60.7734375 46.9296875 C-59.40058594 46.96449219 -59.40058594 46.96449219 -58 47 C-57.78085937 47.66386719 -57.56171875 48.32773437 -57.3359375 49.01171875 C-55.17429982 55.03091311 -53.53908442 58.65564715 -48 62 C-38.22087472 66.03549056 -22.83117161 65.44091006 -13 62 C-9.93625003 59.6383594 -8.38849463 58.06188531 -7.0625 54.4375 C-6.98633882 51.46721401 -7.13253646 50.33432942 -9 48 C-13.8580286 45.60629335 -18.10555026 44.46757423 -23.515625 43.75390625 C-24.94662299 43.55409665 -26.3776123 43.35422488 -27.80859375 43.15429688 C-30.0238012 42.85706342 -32.23949048 42.56387855 -34.45556641 42.27319336 C-59.38347819 38.96189033 -59.38347819 38.96189033 -67 30 C-70.70500684 24.02418252 -70.79108771 17.90403823 -70 11 C-68.01982198 3.2678763 -63.71131166 -1.05056316 -57.109375 -5.18359375 C-40.45389054 -13.86097401 -14.30277845 -12.06973596 0 0 Z " fill="#679F62" transform="translate(492,399)"/>
<path d="M0 0 C2.89866553 2.54116889 4.43597591 5.39190553 6.22265625 8.78515625 C6.83834473 9.9462793 7.4540332 11.10740234 8.08837891 12.30371094 C8.57144501 13.22355774 8.57144501 13.22355774 9.06427002 14.1619873 C10.74939975 17.37027649 12.45218067 20.56919138 14.15234375 23.76953125 C14.48778198 24.40216888 14.82322021 25.03480652 15.16882324 25.68661499 C17.76326688 30.57417029 20.41789603 35.42414434 23.125 40.25 C26.98005847 47.13293777 30.75152182 54.05845409 34.5 61 C40.37903289 71.88190078 46.35700109 82.70487621 52.39794922 93.49755859 C53.34985045 95.19860255 54.30095728 96.90009134 55.2512207 98.60205078 C56.15021395 100.21215456 57.05102209 101.82124667 57.95385742 103.42919922 C61 108.88730662 61 108.88730662 61 110 C56.0782568 110.35135753 53.36296389 109.47844399 49.1328125 106.9921875 C48.01245605 106.34241943 46.89209961 105.69265137 45.73779297 105.02319336 C44.53339486 104.30735395 43.32913398 103.59128361 42.125 102.875 C40.86804781 102.14016295 39.61038746 101.40653599 38.35205078 100.67407227 C35.78839418 99.17898404 33.22919272 97.6766969 30.67382812 96.16748047 C27.36792519 94.21500016 24.05312319 92.27824332 20.734375 90.34765625 C16.8354284 88.07949428 12.93981224 85.80580351 9.046875 83.52734375 C1.35312448 79.03084745 -6.37130744 74.58752523 -14.09814453 70.14819336 C-20.44007502 66.49889522 -26.74095652 62.78978402 -33 59 C-31.70891809 55.60997279 -30.24218459 52.47839169 -28.453125 49.32421875 C-27.94450928 48.42509766 -27.43589355 47.52597656 -26.91186523 46.59960938 C-26.36344971 45.63861328 -25.81503418 44.67761719 -25.25 43.6875 C-24.681604 42.68654297 -24.11320801 41.68558594 -23.52758789 40.65429688 C-18.08909261 31.10261025 -12.5529816 21.60816123 -6.99609375 12.125 C-4.63708703 8.09825439 -2.30507717 4.05783757 0 0 Z " fill="#3E863D" transform="translate(267,229)"/>
<path d="M0 0 C2.59532761 3.24181716 4.50711032 6.65002882 6.44140625 10.3203125 C6.76559036 10.93249634 7.08977448 11.54468018 7.42378235 12.17541504 C8.1155394 13.48218305 8.80584406 14.78972077 9.49481201 16.09796143 C11.28478391 19.49627827 13.0855602 22.88885231 14.88671875 26.28125 C15.2411908 26.94927643 15.59566284 27.61730286 15.96087646 28.30557251 C19.25594571 34.50420533 22.64141528 40.65006069 26.08032227 46.77001953 C27.05836672 48.51064762 28.02966484 50.25506253 29 52 C29.41056641 52.63526611 29.82113281 53.27053223 30.24414062 53.92504883 C31 56 31 56 30.28759766 58.13696289 C29.83433105 58.9077417 29.38106445 59.67852051 28.9140625 60.47265625 C28.40286865 61.35953125 27.8916748 62.24640625 27.36499023 63.16015625 C26.79079346 64.11792969 26.21659668 65.07570313 25.625 66.0625 C25.04371338 67.06023437 24.46242676 68.05796875 23.86352539 69.0859375 C22.26630001 71.81838266 20.6545777 74.54155582 19.03460693 77.26055908 C17.61326093 79.65020806 16.20169662 82.04557935 14.78973389 84.44078064 C11.68446157 89.7081813 8.56549864 94.96714239 5.43359375 100.21875 C2.90992179 104.45454954 0.42428495 108.70660985 -2 113 C-2.66 113 -3.32 113 -4 113 C-5.15659568 110.68680863 -5.13534475 109.34414764 -5.15390015 106.76896667 C-5.16250061 105.88154282 -5.17110107 104.99411896 -5.17996216 104.07980347 C-5.18422211 103.10367096 -5.18848206 102.12753845 -5.19287109 101.12182617 C-5.20104858 100.0956871 -5.20922607 99.06954803 -5.21765137 98.01231384 C-5.2425282 94.60587148 -5.25902648 91.19947082 -5.2734375 87.79296875 C-5.28142302 86.05090369 -5.28142302 86.05090369 -5.28956985 84.2736454 C-5.31631023 78.12766809 -5.33568311 71.98171117 -5.35009766 65.83569336 C-5.36675575 59.47991911 -5.41154137 53.12466236 -5.4624691 46.76908398 C-5.49608381 41.88865038 -5.50766876 37.00834053 -5.51332474 32.1278019 C-5.52005219 29.78459018 -5.53531273 27.44138703 -5.55921555 25.09828758 C-5.59074743 21.82054523 -5.59092143 18.54421091 -5.58349609 15.26635742 C-5.59990143 14.29629761 -5.61630676 13.32623779 -5.63320923 12.32678223 C-5.56510835 4.99245726 -5.56510835 4.99245726 -2.46353149 1.85835266 C-1.6505661 1.24509628 -0.83760071 0.6318399 0 0 Z " fill="#569D4A" transform="translate(237,173)"/>
<path d="M0 0 C2.70819939 1.29303355 5.21843664 2.83027432 7.75 4.4375 C8.43449219 4.85837891 9.11898437 5.27925781 9.82421875 5.71289062 C14.7789164 8.7789164 14.7789164 8.7789164 16 10 C18.84046532 27.81687295 18.84046532 27.81687295 14.78417969 33.79052734 C11.34435763 36.86327529 7.31232621 38.43756297 3 40 C2.32453125 40.40734375 1.6490625 40.8146875 0.953125 41.234375 C-2.03738877 42.4066564 -3.9286772 41.84621932 -7 41 C-9.37599082 39.73134668 -11.5690946 38.4632017 -13.8125 37 C-14.39708984 36.63132813 -14.98167969 36.26265625 -15.58398438 35.8828125 C-19.78447421 33.21552579 -19.78447421 33.21552579 -21 32 C-21.08713831 30.29227642 -21.10700007 28.58101351 -21.09765625 26.87109375 C-21.09443359 25.83662109 -21.09121094 24.80214844 -21.08789062 23.73632812 C-21.07951172 22.64771484 -21.07113281 21.55910156 -21.0625 20.4375 C-21.05798828 19.34501953 -21.05347656 18.25253906 -21.04882812 17.12695312 C-21.03699826 14.41791505 -21.02051543 11.70898401 -21 9 C-18.44462079 7.48659093 -15.88187787 5.98929997 -13.3125 4.5 C-12.59126953 4.07074219 -11.87003906 3.64148438 -11.12695312 3.19921875 C-3.99341919 -0.90500625 -3.99341919 -0.90500625 0 0 Z " fill="#679F62" transform="translate(793,210)"/>
<path d="M0 0 C4.22361146 2.81574097 7.07255826 5.30671386 8.484375 10.20703125 C9.3032089 15.53763992 8.87213798 19.51884933 6.1015625 24.18359375 C2.94860237 28.32065961 -0.61466947 29.99448685 -5.625 30.8125 C-10.17116968 31.11812485 -13.22429019 30.23768277 -17.1875 27.875 C-21.27304596 23.99055605 -23.31213818 20.2806296 -23.5 14.625 C-23.41465119 9.85322542 -22.45981359 6.42307035 -19.1875 2.875 C-13.19182825 -1.60848905 -7.08932896 -2.5021161 0 0 Z M-15.1875 4.875 C-18.2838277 7.9713277 -19.97205067 10.4582888 -20.1875 14.875 C-19.13679185 19.91839911 -17.03044895 22.51241967 -13.1875 25.875 C-9.9249887 27.50625565 -6.6995384 27.56351113 -3.1875 26.875 C0.1383409 24.812217 3.04752468 22.40495064 4.8125 18.875 C5.19807539 14.24809536 5.24208838 11.78572736 3.25 7.5625 C0.21798557 4.21950973 -1.93733917 3.29172028 -6.1875 1.875 C-9.50783455 1.875 -12.34072984 3.28004618 -15.1875 4.875 Z " fill="#679F62" transform="translate(569.1875,367.125)"/>
<path d="M0 0 C3.63 0 7.26 0 11 0 C12.5228147 3.94140274 13.06239143 5.98652126 12 10 C12.19786898 12.69726662 12.59829152 15.32194348 13 18 C11.35 18 9.7 18 8 18 C7.67 16.02 7.34 14.04 7 12 C6.01 11.67 5.02 11.34 4 11 C4 13.31 4 15.62 4 18 C2.68 18 1.36 18 0 18 C0 12.06 0 6.12 0 0 Z M4 3 C4 4.32 4 5.64 4 7 C5.32 7 6.64 7 8 7 C7.67 5.68 7.34 4.36 7 3 C6.01 3 5.02 3 4 3 Z " fill="#679F62" transform="translate(556,373)"/>
</svg>
